<svg width="24" height="24" viewBox="0 0 24 24" fill="none" xmlns="http://www.w3.org/2000/svg">
<path d="M22.9727 0.916493C22.7524 0.773516 22.5061 0.675342 22.2479 0.62758C21.9896 0.579817 21.7245 0.583402 21.4676 0.63813C21.2108 0.692858 20.9672 0.797656 20.7509 0.946538C20.5345 1.09542 20.3496 1.28547 20.2067 1.50583L9.00006 18.7798L3.53473 13.7265C3.34191 13.5482 3.11585 13.4096 2.86948 13.3187C2.6231 13.2278 2.36123 13.1863 2.09881 13.1965C1.56883 13.2173 1.06881 13.4477 0.70873 13.8372C0.348654 14.2266 0.158025 14.7431 0.178779 15.2731C0.199533 15.8031 0.42997 16.3031 0.819396 16.6632L7.9954 23.2978C7.9954 23.2978 8.2014 23.4752 8.29673 23.5372C8.51705 23.6802 8.76341 23.7785 9.02173 23.8263C9.28005 23.8741 9.54525 23.8706 9.80219 23.8158C10.0591 23.7611 10.3028 23.6563 10.5192 23.5073C10.7356 23.3584 10.9205 23.1683 11.0634 22.9478L23.5621 3.68249C23.705 3.4622 23.8032 3.21589 23.851 2.95764C23.8987 2.69939 23.8952 2.43426 23.8404 2.1774C23.7857 1.92054 23.6809 1.67698 23.532 1.46063C23.3831 1.24428 23.1931 1.05938 22.9727 0.916493Z" fill="#1D9129"/>
</svg>
