<svg width="23" height="23" viewBox="0 0 23 23" fill="none" xmlns="http://www.w3.org/2000/svg">
<path d="M14.3551 11.0012L22.5117 2.8452C22.8153 2.53086 22.9833 2.10986 22.9795 1.67286C22.9757 1.23587 22.8004 0.817846 22.4914 0.508833C22.1824 0.199819 21.7644 0.0245375 21.3274 0.0207401C20.8904 0.0169427 20.4694 0.184933 20.1551 0.48853L11.9984 8.64453L3.84241 0.48853C3.68774 0.33366 3.50406 0.210799 3.30187 0.126973C3.09968 0.0431469 2.88295 0 2.66407 0C2.4452 0 2.22847 0.0431469 2.02628 0.126973C1.82409 0.210799 1.64041 0.33366 1.48574 0.48853C1.33087 0.643199 1.20801 0.82688 1.12418 1.02907C1.04036 1.23126 0.997211 1.44799 0.997211 1.66686C0.997211 1.88574 1.04036 2.10247 1.12418 2.30466C1.20801 2.50685 1.33087 2.69053 1.48574 2.8452L9.64174 11.0012L1.46707 19.1765C1.2335 19.4094 1.07434 19.7064 1.00977 20.0298C0.945194 20.3533 0.978122 20.6886 1.10438 20.9933C1.23063 21.298 1.44452 21.5584 1.71893 21.7414C1.99334 21.9244 2.31591 22.0218 2.64574 22.0212C3.07241 22.0212 3.49907 21.8585 3.82441 21.5332L11.9991 13.3579L20.1551 21.5139C20.3097 21.6688 20.4935 21.7917 20.6957 21.8755C20.898 21.9592 21.1148 22.0022 21.3337 22.0019C21.6633 22.0018 21.9854 21.904 22.2594 21.7209C22.5334 21.5378 22.747 21.2776 22.8731 20.9732C22.9993 20.6687 23.0323 20.3337 22.9681 20.0105C22.9039 19.6873 22.7453 19.3903 22.5124 19.1572L14.3551 11.0012Z" fill="#BC1111"/>
</svg>
