<svg width="17" height="17" viewBox="0 0 17 17" fill="none" xmlns="http://www.w3.org/2000/svg">
<path d="M11.7749 10.4027H11.0523L10.7961 10.1557C11.6926 9.11286 12.2324 7.75894 12.2324 6.2861C12.2324 3.00194 9.57026 0.339844 6.2861 0.339844C3.00194 0.339844 0.339844 3.00194 0.339844 6.2861C0.339844 9.57026 3.00194 12.2324 6.2861 12.2324C7.75894 12.2324 9.11286 11.6926 10.1557 10.7961L10.4027 11.0523V11.7749L14.9768 16.3398L16.3398 14.9768L11.7749 10.4027ZM6.2861 10.4027C4.00823 10.4027 2.16946 8.56397 2.16946 6.2861C2.16946 4.00823 4.00823 2.16946 6.2861 2.16946C8.56397 2.16946 10.4027 4.00823 10.4027 6.2861C10.4027 8.56397 8.56397 10.4027 6.2861 10.4027ZM6.7435 3.99908H5.82869V5.82869H3.99908V6.7435H5.82869V8.57312H6.7435V6.7435H8.57312V5.82869H6.7435V3.99908Z" fill="#FDFDFE"/>
</svg>
